<?xml version="1.0" standalone="no"?><!DOCTYPE svg PUBLIC "-//W3C//DTD SVG 1.1//EN" "http://www.w3.org/Graphics/SVG/1.1/DTD/svg11.dtd"><svg class="icon" width="200px" height="200.00px" viewBox="0 0 1024 1024" version="1.1" xmlns="http://www.w3.org/2000/svg"><path d="M106.666667 512q0-12.8 4.266666-25.6 4.266667-8.533333 12.8-21.333333 12.8-8.533333 21.333334-12.8 12.8-4.266667 25.6-4.266667h682.666666c17.066667 0 34.133333 8.533333 46.933334 17.066667 8.533333 12.8 17.066667 29.866667 17.066666 46.933333 0 17.066667-8.533333 34.133333-17.066666 46.933333-12.8 8.533333-29.866667 17.066667-46.933334 17.066667H170.666667q-12.8 0-25.6-4.266667-8.533333-4.266667-21.333334-12.8-8.533333-12.8-12.8-21.333333-4.266667-12.8-4.266666-25.6z" fill="#2c2c2c" /></svg>